<svg width="68" height="72" viewBox="0 0 68 72" fill="none" xmlns="http://www.w3.org/2000/svg">
<path d="M33.7249 0.125488C27.8873 0.125488 24.3931 1.00848 22.172 2.10946C21.0601 2.66132 20.2706 3.24079 19.7397 3.83405C19.2059 4.4273 18.8696 5.29926 18.8696 5.29926C18.7824 5.52087 18.7245 5.75273 18.6972 5.98909L17.2184 24.874C17.1989 24.9899 17.2378 25.1776 17.2184 25.3045L17.046 27.2029C17.0298 27.3745 17.0298 27.5473 17.046 27.7189C17.046 36.8248 24.5515 44.275 33.7249 44.275C42.8983 44.275 50.4038 36.8248 50.4038 27.7189V27.2885C50.4043 27.26 50.4043 27.2314 50.4038 27.2029L48.7526 5.98909C48.7253 5.75273 48.6674 5.52087 48.5802 5.29926C48.5802 5.29926 48.2439 4.4273 47.7102 3.83405C47.1792 3.23803 46.3898 2.65857 45.2778 2.10946C43.0568 1.00572 39.5625 0.125488 33.7249 0.125488ZM33.7249 44.275C15.3781 44.275 0.367126 52.8455 0.367126 60.5717V71.8684H67.0827V60.5717C67.0827 53.2318 53.5116 45.1469 36.4186 44.3605C35.5219 44.3018 34.6235 44.2733 33.7249 44.275ZM33.7249 5.64417C39.0066 5.64417 41.6446 6.47198 42.7593 7.02385C43.1318 7.20872 43.1763 7.28047 43.2819 7.36876L44.4105 21.5104C41.8531 21.6649 38.3672 22.2002 33.7249 22.2002C29.0826 22.2002 25.5995 21.6649 23.0393 21.5104L24.1679 7.36876C24.2708 7.28047 24.318 7.20872 24.6905 7.02385C25.8052 6.47198 28.4433 5.64417 33.7249 5.64417ZM31.4649 8.40352V11.6816H28.1653V16.1656H31.4677V19.4409H35.9821V16.1628H39.2845V11.6816H35.9821V8.40352H31.4677H31.4649ZM25.3855 50.4835L32.5101 66.3497H5.92676V60.5717C5.92676 58.5159 13.0153 52.4951 25.3855 50.4835ZM42.0644 50.4835C54.4345 52.4978 61.5231 58.5159 61.5231 60.5717V66.3497H34.9397L42.0644 50.4835Z" fill="#EC5863"/>
</svg>
