<svg width="88" height="73" viewBox="0 0 88 73" fill="none" xmlns="http://www.w3.org/2000/svg">
<path d="M24.5815 0.442871C18.2049 0.442871 12.0895 2.93597 7.58063 7.3737C3.07172 11.8114 0.538635 17.8303 0.538635 24.1062C0.538635 26.2574 0.932064 28.4086 1.50035 30.5598H19.3358L24.8875 16.0607C26.1989 12.6187 31.3572 12.2745 33.0184 16.0607L42.0672 39.1647L44.6464 33.0552C45.2146 31.6354 46.7446 30.5598 48.6244 30.5598H87.0055C87.5738 28.4086 87.9672 26.2574 87.9672 24.1062C87.9672 17.8303 85.4341 11.8114 80.9252 7.3737C76.4163 2.93597 70.3009 0.442871 63.9244 0.442871C55.7935 0.442871 48.6244 4.44413 44.2529 10.5105C39.8815 4.44413 32.7124 0.442871 24.5815 0.442871ZM4.91006 37.0135C3.75069 37.0135 2.6388 37.4668 1.819 38.2736C0.999195 39.0805 0.538635 40.1748 0.538635 41.3159C0.538635 42.457 0.999195 43.5513 1.819 44.3582C2.6388 45.165 3.75069 45.6183 4.91006 45.6183H15.5764L39.8815 69.2817C44.2529 73.1538 44.2529 73.1538 48.6244 69.2817L72.9295 45.6183H83.5958C84.7552 45.6183 85.8671 45.165 86.6869 44.3582C87.5067 43.5513 87.9672 42.457 87.9672 41.3159C87.9672 40.1748 87.5067 39.0805 86.6869 38.2736C85.8671 37.4668 84.7552 37.0135 83.5958 37.0135H50.3729L46.3075 46.909C44.5589 51.2545 39.5318 50.6522 37.9144 47.0381L28.9529 24.1062L24.7564 34.1309C24.1006 35.7658 22.6144 37.0135 20.6472 37.0135H4.91006Z" fill="#EC5863"/>
</svg>
