<svg width="65" height="73" viewBox="0 0 65 73" fill="none" xmlns="http://www.w3.org/2000/svg">
<path d="M64.4814 26.008H43.0528V72.6409H35.9099V51.118H28.7671V72.6409H21.6242V26.008H0.195633V18.8337H64.4814V26.008ZM32.3385 0.897949C34.2329 0.897949 36.0497 1.65381 37.3893 2.99925C38.7288 4.34469 39.4814 6.1695 39.4814 8.07224C39.4814 9.97498 38.7288 11.7998 37.3893 13.1452C36.0497 14.4907 34.2329 15.2465 32.3385 15.2465C30.4441 15.2465 28.6273 14.4907 27.2877 13.1452C25.9482 11.7998 25.1956 9.97498 25.1956 8.07224C25.1956 4.09051 28.3742 0.897949 32.3385 0.897949Z" fill="#EC5863"/>
</svg>
