<svg width="548" height="394" viewBox="0 0 548 394" fill="none" xmlns="http://www.w3.org/2000/svg">
<path opacity="0.6" d="M318.251 69.7548C283.183 68.5396 249.758 57.2518 217.888 44.9045C186.019 32.5572 154.431 18.8742 120.185 12.3315C98.1664 8.1186 72.9852 7.52609 55.2475 19.296C38.1746 30.6189 32.6599 50.1668 29.6935 68.3036C27.4625 81.9515 26.1682 96.3123 32.2671 109.091C36.5126 117.959 44.0469 125.416 49.2594 133.912C67.3899 163.472 54.5726 199.926 34.9212 228.814C25.7048 242.371 15.0129 255.271 7.90167 269.687C0.790478 284.103 -2.50323 300.618 3.72158 315.32C9.89099 329.882 24.5868 340.839 40.5114 348.536C72.8542 364.157 110.964 368.626 148.126 371.187C230.388 376.796 313.094 374.366 395.572 371.935C426.097 371.031 456.758 370.123 486.784 365.408C503.459 362.792 520.678 358.644 532.785 348.632C548.151 335.918 551.963 314.396 541.664 298.454C524.39 271.721 476.631 265.077 464.554 236.386C457.911 220.594 464.735 202.999 474.395 188.352C495.109 156.934 529.839 129.367 531.667 93.4502C532.926 68.7807 516.231 44.081 490.415 32.4065C463.36 20.1596 425.84 21.7062 405.882 41.947C385.329 62.8003 349.209 70.8243 318.251 69.7548Z" fill="#587EEC"/>
<path d="M122.436 364.509C122.436 364.509 94.7368 343.63 89.5042 317.073C87.3822 305.919 81.6903 295.751 73.2824 288.095C69.2602 284.494 64.9159 281.266 60.304 278.454" stroke="#9AB1F3" stroke-width="2" stroke-miterlimit="10"/>
<path d="M56.9146 261.723C59.342 264.997 60.4399 278.871 60.4399 278.871C60.4399 278.871 47.4615 273.774 45.029 270.506C43.8609 268.934 43.3668 266.964 43.6554 265.03C43.9439 263.095 44.9915 261.354 46.5676 260.189C48.1437 259.025 50.1193 258.532 52.0597 258.82C54.0002 259.107 55.7465 260.152 56.9146 261.723Z" fill="#587EEC"/>
<path d="M80.1922 272.609C80.444 276.672 73.8113 288.914 73.8113 288.914C73.8113 288.914 65.6878 277.596 65.431 273.533C65.3333 271.597 66.0049 269.7 67.3003 268.253C68.5957 266.807 70.4105 265.928 72.3515 265.806C74.2925 265.685 76.2034 266.331 77.6701 267.604C79.1367 268.877 80.0411 270.676 80.1872 272.609H80.1922Z" fill="#587EEC"/>
<path d="M102.755 303.902C100.921 307.537 88.9905 314.768 88.9905 314.768C88.9905 314.768 87.7163 300.909 89.5495 297.274C90.4519 295.564 91.9914 294.276 93.8368 293.687C95.6821 293.098 97.6857 293.254 99.4164 294.123C101.147 294.992 102.467 296.503 103.091 298.332C103.715 300.161 103.594 302.161 102.755 303.902Z" fill="#587EEC"/>
<path d="M114.484 331.399C113.29 335.29 102.759 344.424 102.759 344.424C102.759 344.424 99.1484 330.982 100.342 327.085C100.916 325.216 102.211 323.65 103.943 322.732C105.674 321.814 107.701 321.62 109.576 322.192C111.451 322.764 113.022 324.055 113.942 325.782C114.863 327.508 115.058 329.529 114.484 331.399Z" fill="#587EEC"/>
<path d="M61.8047 298.755C65.8337 299.298 78.5704 293.563 78.5704 293.563C78.5704 293.563 67.8231 284.686 63.7739 284.143C61.8305 283.883 59.8629 284.403 58.304 285.589C56.7452 286.775 55.7227 288.53 55.4616 290.468C55.2004 292.405 55.722 294.367 56.9116 295.921C58.1012 297.476 59.8613 298.495 61.8047 298.755Z" fill="#587EEC"/>
<path d="M75.9314 330.746C79.9604 330.058 90.3703 320.794 90.3703 320.794C90.3703 320.794 77.4473 315.531 73.4233 316.219C72.4599 316.377 71.5373 316.723 70.7088 317.238C69.8802 317.753 69.1622 318.426 68.5961 319.219C68.0299 320.012 67.6269 320.909 67.4103 321.858C67.1937 322.807 67.1678 323.79 67.3341 324.749C67.5003 325.708 67.8555 326.625 68.379 327.446C68.9026 328.268 69.5842 328.978 70.3844 329.536C71.1847 330.093 72.0877 330.487 73.0415 330.695C73.9953 330.902 74.9809 330.92 75.9415 330.746H75.9314Z" fill="#587EEC"/>
<path d="M93.936 359.965C98.0204 359.965 109.856 352.588 109.856 352.588C109.856 352.588 98.0153 345.222 93.9309 345.222C91.9701 345.222 90.0896 345.999 88.7031 347.381C87.3166 348.763 86.5377 350.638 86.5377 352.593C86.5377 354.548 87.3166 356.423 88.7031 357.806C90.0896 359.188 91.9701 359.965 93.9309 359.965H93.936Z" fill="#587EEC"/>
<path d="M391.523 183.929C391.523 183.929 408.596 153.776 434.331 145.089C445.138 141.511 454.489 134.536 460.983 125.21C464.029 120.751 466.657 116.023 468.835 111.085" stroke="#9AB1F3" stroke-width="2" stroke-miterlimit="10"/>
<path d="M484.991 105.562C482.06 108.394 468.417 111.326 468.417 111.326C468.417 111.326 471.766 97.8187 474.697 94.9817C476.112 93.661 477.99 92.9471 479.928 92.9935C481.865 93.04 483.707 93.8431 485.056 95.2301C486.406 96.617 487.155 98.4768 487.143 100.409C487.131 102.341 486.358 104.192 484.991 105.562Z" fill="#587EEC"/>
<path d="M477.275 129.98C473.246 130.773 460.218 125.843 460.218 125.843C460.218 125.843 470.391 116.302 474.395 115.524C475.356 115.311 476.35 115.292 477.319 115.468C478.288 115.643 479.212 116.01 480.037 116.547C480.861 117.083 481.57 117.779 482.122 118.592C482.673 119.405 483.056 120.321 483.248 121.283C483.44 122.246 483.437 123.238 483.239 124.2C483.041 125.162 482.653 126.074 482.097 126.885C481.54 127.695 480.827 128.386 479.999 128.917C479.171 129.449 478.245 129.81 477.275 129.98Z" fill="#587EEC"/>
<path d="M449.193 156.432C445.336 155.102 436.567 144.276 436.567 144.276C436.567 144.276 450.165 141.173 454.033 142.503C454.962 142.811 455.821 143.299 456.56 143.94C457.298 144.581 457.902 145.362 458.335 146.237C458.768 147.112 459.023 148.065 459.084 149.039C459.145 150.013 459.012 150.99 458.691 151.912C458.371 152.835 457.87 153.685 457.217 154.412C456.565 155.14 455.773 155.731 454.89 156.152C454.006 156.572 453.048 156.814 452.07 156.862C451.092 156.91 450.114 156.764 449.193 156.432Z" fill="#587EEC"/>
<path d="M423.388 171.677C419.359 171.014 408.903 161.8 408.903 161.8C408.903 161.8 421.791 156.447 425.815 157.11C427.752 157.428 429.483 158.499 430.627 160.089C431.771 161.679 432.235 163.657 431.916 165.588C431.598 167.519 430.523 169.245 428.928 170.386C427.334 171.527 425.35 171.989 423.413 171.672L423.388 171.677Z" fill="#587EEC"/>
<path d="M448.841 115.283C448.836 119.355 456.244 131.17 456.244 131.17C456.244 131.17 463.642 119.37 463.642 115.303C463.668 114.319 463.496 113.34 463.136 112.423C462.776 111.507 462.236 110.672 461.547 109.967C460.858 109.262 460.035 108.701 459.126 108.319C458.216 107.936 457.239 107.739 456.252 107.739C455.265 107.739 454.287 107.936 453.378 108.319C452.468 108.701 451.645 109.262 450.956 109.967C450.267 110.672 449.727 111.507 449.367 112.423C449.007 113.34 448.835 114.319 448.861 115.303L448.841 115.283Z" fill="#587EEC"/>
<path d="M418.91 133.49C420.129 137.376 430.725 146.44 430.725 146.44C430.725 146.44 434.251 132.973 433.022 129.086C432.385 127.286 431.071 125.802 429.359 124.947C427.646 124.093 425.668 123.934 423.84 124.505C422.013 125.075 420.478 126.331 419.561 128.007C418.643 129.683 418.414 131.649 418.92 133.49H418.91Z" fill="#587EEC"/>
<path d="M392.284 155.167C392.828 159.184 401.732 169.914 401.732 169.914C401.732 169.914 407.478 157.236 406.934 153.203C406.826 152.227 406.523 151.281 406.044 150.422C405.564 149.564 404.917 148.81 404.14 148.204C403.364 147.599 402.473 147.154 401.522 146.897C400.571 146.639 399.577 146.574 398.6 146.705C397.623 146.836 396.683 147.16 395.833 147.659C394.984 148.158 394.243 148.821 393.654 149.609C393.066 150.398 392.641 151.296 392.406 152.25C392.171 153.204 392.129 154.196 392.284 155.167Z" fill="#587EEC"/>
<path opacity="0.25" d="M484.991 105.562C482.06 108.394 468.417 111.326 468.417 111.326C468.417 111.326 471.766 97.8187 474.697 94.9817C476.112 93.661 477.99 92.9471 479.928 92.9935C481.865 93.04 483.707 93.8431 485.056 95.2301C486.406 96.617 487.155 98.4768 487.143 100.409C487.131 102.341 486.358 104.192 484.991 105.562Z" fill="black"/>
<path opacity="0.25" d="M477.275 129.98C473.246 130.773 460.218 125.843 460.218 125.843C460.218 125.843 470.391 116.302 474.395 115.524C475.356 115.311 476.35 115.292 477.319 115.468C478.288 115.643 479.212 116.01 480.037 116.547C480.861 117.083 481.57 117.779 482.122 118.592C482.673 119.405 483.056 120.321 483.248 121.283C483.44 122.246 483.437 123.238 483.239 124.2C483.041 125.162 482.653 126.074 482.097 126.885C481.54 127.695 480.827 128.386 479.999 128.917C479.171 129.449 478.245 129.81 477.275 129.98Z" fill="black"/>
<path opacity="0.25" d="M449.193 156.432C445.336 155.102 436.567 144.276 436.567 144.276C436.567 144.276 450.165 141.173 454.033 142.503C454.962 142.811 455.821 143.299 456.56 143.94C457.298 144.581 457.902 145.362 458.335 146.237C458.768 147.112 459.023 148.065 459.084 149.039C459.145 150.013 459.012 150.99 458.691 151.912C458.371 152.835 457.87 153.685 457.217 154.412C456.565 155.14 455.773 155.731 454.89 156.152C454.006 156.572 453.048 156.814 452.07 156.862C451.092 156.91 450.114 156.764 449.193 156.432Z" fill="black"/>
<path opacity="0.25" d="M423.388 171.677C419.359 171.014 408.903 161.8 408.903 161.8C408.903 161.8 421.791 156.447 425.815 157.11C427.752 157.428 429.483 158.499 430.627 160.089C431.771 161.679 432.235 163.657 431.916 165.588C431.598 167.519 430.523 169.245 428.928 170.386C427.334 171.527 425.35 171.989 423.413 171.672L423.388 171.677Z" fill="black"/>
<path opacity="0.25" d="M448.841 115.283C448.836 119.355 456.244 131.17 456.244 131.17C456.244 131.17 463.642 119.37 463.642 115.303C463.668 114.319 463.496 113.34 463.136 112.423C462.776 111.507 462.236 110.672 461.547 109.967C460.858 109.262 460.035 108.701 459.126 108.319C458.216 107.936 457.239 107.739 456.252 107.739C455.265 107.739 454.287 107.936 453.378 108.319C452.468 108.701 451.645 109.262 450.956 109.967C450.267 110.672 449.727 111.507 449.367 112.423C449.007 113.34 448.835 114.319 448.861 115.303L448.841 115.283Z" fill="black"/>
<path opacity="0.25" d="M418.91 133.49C420.129 137.376 430.725 146.44 430.725 146.44C430.725 146.44 434.251 132.973 433.022 129.086C432.385 127.286 431.071 125.802 429.359 124.947C427.646 124.093 425.668 123.934 423.84 124.505C422.013 125.075 420.478 126.331 419.561 128.007C418.643 129.683 418.414 131.649 418.92 133.49H418.91Z" fill="black"/>
<path opacity="0.25" d="M392.284 155.167C392.828 159.184 401.732 169.914 401.732 169.914C401.732 169.914 407.478 157.236 406.934 153.203C406.826 152.227 406.523 151.281 406.044 150.422C405.564 149.564 404.917 148.81 404.14 148.204C403.364 147.599 402.473 147.154 401.522 146.897C400.571 146.639 399.577 146.574 398.6 146.705C397.623 146.836 396.683 147.16 395.833 147.659C394.984 148.158 394.243 148.821 393.654 149.609C393.066 150.398 392.641 151.296 392.406 152.25C392.171 153.204 392.129 154.196 392.284 155.167Z" fill="black"/>
<path d="M392.505 183.331C392.505 183.331 395.859 148.865 415.833 130.537C424.258 122.899 429.972 112.744 432.12 101.595C433.098 96.2945 433.585 90.9158 433.576 85.5267" stroke="#9AB1F3" stroke-width="2" stroke-miterlimit="10"/>
<path d="M446.096 73.8974C444.585 77.6734 433.284 85.8681 433.284 85.8681C433.284 85.8681 430.856 72.165 432.382 68.389C433.117 66.5759 434.544 65.128 436.349 64.3638C438.155 63.5996 440.191 63.5818 442.009 64.3143C443.828 65.0467 445.28 66.4694 446.046 68.2694C446.813 70.0695 446.831 72.0993 446.096 73.9124V73.8974Z" fill="#587EEC"/>
<path d="M448.972 99.3653C445.633 101.705 431.697 102.473 431.697 102.473C431.697 102.473 437.126 89.6491 440.465 87.3092C441.257 86.7183 442.16 86.2918 443.12 86.0551C444.08 85.8183 445.078 85.776 446.055 85.9307C447.032 86.0854 447.968 86.434 448.807 86.9557C449.647 87.4775 450.372 88.1619 450.942 88.9684C451.511 89.7748 451.912 90.687 452.121 91.6508C452.331 92.6146 452.344 93.6105 452.16 94.5795C451.976 95.5485 451.6 96.4709 451.052 97.2921C450.504 98.1133 449.797 98.8166 448.972 99.3603V99.3653Z" fill="#587EEC"/>
<path d="M434.034 134.906C429.965 135.247 417.546 128.88 417.546 128.88C417.546 128.88 428.726 120.545 432.795 120.204C434.75 120.04 436.689 120.657 438.187 121.918C439.685 123.18 440.619 124.984 440.783 126.932C440.947 128.88 440.328 130.814 439.063 132.307C437.797 133.801 435.988 134.732 434.034 134.896V134.906Z" fill="#587EEC"/>
<path d="M416.654 159.254C412.701 160.258 399.385 156.106 399.385 156.106C399.385 156.106 408.989 146.008 412.942 144.984C414.84 144.493 416.856 144.774 418.546 145.765C420.237 146.756 421.463 148.376 421.955 150.268C422.447 152.161 422.165 154.171 421.171 155.856C420.177 157.541 418.552 158.763 416.654 159.254Z" fill="#587EEC"/>
<path d="M417.007 97.417C418.659 101.138 430.212 108.966 430.212 108.966C430.212 108.966 432.176 95.1876 430.524 91.4668C429.701 89.726 428.228 88.3752 426.419 87.703C424.61 87.0309 422.609 87.0906 420.844 87.8696C419.079 88.6486 417.69 90.0849 416.973 91.8717C416.256 93.6586 416.268 95.6541 417.007 97.4321V97.417Z" fill="#587EEC"/>
<path d="M397.043 126.149C399.737 129.207 413.104 133.214 413.104 133.214C413.104 133.214 410.847 119.481 408.153 116.423C407.517 115.68 406.739 115.07 405.865 114.63C404.991 114.189 404.037 113.926 403.06 113.856C402.083 113.786 401.102 113.91 400.173 114.221C399.245 114.533 398.388 115.025 397.652 115.669C396.915 116.314 396.315 117.097 395.886 117.975C395.456 118.853 395.205 119.807 395.149 120.782C395.092 121.757 395.23 122.734 395.556 123.655C395.881 124.576 396.386 125.424 397.043 126.149Z" fill="#587EEC"/>
<path d="M381.486 156.738C383.621 160.203 396.116 166.404 396.116 166.404C396.116 166.404 396.222 152.49 394.102 149.021C393.046 147.419 391.407 146.29 389.53 145.873C387.654 145.456 385.688 145.784 384.05 146.788C382.413 147.792 381.232 149.392 380.758 151.25C380.284 153.108 380.554 155.076 381.511 156.738H381.486Z" fill="#587EEC"/>
<path d="M366.82 48.3542C367.656 45.2962 368.664 42.2232 369.369 39.1251C368.523 42.2232 367.51 45.3063 366.82 48.3542Z" fill="url(#paint0_linear_4_6)"/>
<path d="M363.073 77.809C363.003 77.6885 362.953 77.568 362.897 77.4575C362.897 77.4073 362.847 77.3671 362.827 77.3169C362.717 77.3685 362.604 77.4138 362.489 77.4525C362.268 77.5378 362.041 77.6182 361.809 77.6834C361.578 77.7487 361.482 77.7839 361.306 77.824C361.16 77.8742 361.01 77.9129 360.857 77.9395L360.898 78.0299C361.084 77.9897 361.265 77.9546 361.452 77.9044L361.502 78.527C361.714 78.527 361.91 78.4969 362.101 78.4969C362.192 78.4919 362.283 78.4919 362.373 78.4969C362.766 78.4969 363.109 78.4969 363.381 78.4969C363.275 78.2709 363.164 78.0349 363.073 77.809ZM465.309 240.062C462.942 236.883 458.218 202.768 458.218 202.768C458.218 202.768 448.926 178.511 451.46 168.83C453.993 159.149 444.54 134.379 444.54 134.379C444.54 134.379 438.295 131.672 437.957 127.655C437.957 127.655 412.459 119.621 411.265 113.596C410.298 108.655 394.485 105.11 388.804 103.99C387.071 97.0204 385.329 90.5178 384.044 86.9678C383.697 85.8631 383.37 84.9091 383.067 84.1559C380.897 78.6325 374.188 78.1303 369.323 78.5722C369.113 77.6308 368.721 76.739 368.17 75.9461C368.09 75.6735 367.93 75.4306 367.712 75.2481C367.607 75.1594 367.496 75.0788 367.379 75.0071C367.291 74.8444 367.175 74.6982 367.037 74.5753C366.899 74.4511 366.747 74.3433 366.584 74.2539C366.467 74.1908 366.345 74.1354 366.221 74.0882C365.929 73.9774 365.627 73.895 365.32 73.8422C364.961 73.7686 364.597 73.7216 364.232 73.7016C365.121 73.3139 365.913 72.7362 366.553 72.0094C366.989 71.4991 367.313 70.904 367.505 70.262C367.665 69.7281 367.736 69.1718 367.717 68.615C367.586 68.8445 367.434 69.0613 367.264 69.2628C367.475 67.0383 366.297 64.7788 365.622 62.5644C364.804 59.6816 364.653 56.6514 365.179 53.7018C365.853 49.253 367.525 44.7539 368.659 40.2247C368.661 40.1997 368.661 40.1744 368.659 40.1494C369.253 37.9001 369.621 35.5973 369.757 33.2753C369.953 28.5904 368.749 23.9156 366.815 19.6475C365.098 15.8665 362.565 12.1457 358.687 10.6092C355.806 9.4493 352.578 9.63508 349.476 9.44428C342.515 9.01245 335.878 6.57211 329.26 4.3527C322.642 2.1333 315.833 0.114741 308.868 0.50138C301.903 0.888018 294.736 4.23721 291.559 10.3833C290.551 12.3014 289.972 14.4354 288.769 16.2381C286.512 19.6375 282.473 21.3397 279.104 23.6846C275.735 26.0296 272.768 29.3587 271.55 33.3305C270.884 35.4704 270.79 37.7464 271.278 39.9335C271.387 40.4274 271.529 40.9138 271.701 41.3896C272.179 42.7164 272.924 43.9314 273.891 44.9598C274.621 45.7198 275.459 46.3679 276.379 46.8829C277.535 47.5215 278.771 48.0012 280.056 48.309C280.01 48.4596 279.965 48.6203 279.915 48.7759C279.834 49.032 279.764 49.2781 279.688 49.5542C279.522 50.1719 279.366 50.7995 279.235 51.4322C279.23 51.4772 279.23 51.5227 279.235 51.5678C278.616 54.4239 278.306 57.3377 278.308 60.2596C278.307 61.6415 278.378 63.0225 278.52 64.3971C280.534 84.7735 297.406 100.847 318.251 101.891C318.966 101.926 319.686 101.946 320.416 101.946C320.749 101.946 321.076 101.946 321.424 101.946C321.751 102.378 322.073 102.82 322.38 103.252C322.688 103.684 322.97 104.125 323.237 104.557L322.506 103.804L321.776 103.136C321.578 103.407 321.357 103.661 321.116 103.895C320.64 103.728 320.154 103.59 319.661 103.483C317.571 103.021 314.388 102.85 310.198 104.11C306.345 105.26 301.636 107.625 296.126 112.119L269.278 128.187L254.754 136.995L249.521 149.749C249.521 149.749 245.588 164.903 241.211 182.267C241.04 182.317 240.874 182.367 240.708 182.427C240.353 182.387 239.997 182.367 239.64 182.367C237.101 182.361 234.658 183.337 232.825 185.088C230.992 186.84 229.911 189.232 229.809 191.762C221.106 202.307 220.613 212.851 222.658 217.692C222.843 218.145 223.076 218.578 223.353 218.982C224.692 220.91 227.195 225.881 229.734 231.179C229.668 231.616 229.628 231.982 229.608 232.258C229.603 232.349 229.603 232.439 229.608 232.53C229.608 232.53 231.118 255.281 226.082 261.804C224.979 263.225 225.145 265.093 226.082 267.161C229.457 274.603 242.798 284.54 242.798 284.54C242.798 284.54 258.798 284.455 267.712 283.486C267.687 284.379 267.667 285.268 267.646 286.137C267.445 294.914 267.445 302.27 267.445 302.27L267.113 311.474C267.113 311.474 264.091 330.871 262.58 336.219C261.628 339.573 262.726 370.63 263.683 393.462H421.328C423.181 379.954 420.567 338.915 420.567 338.915C420.567 338.915 418.084 328.305 417.994 319.056C417.989 319.046 417.986 319.035 417.986 319.024C417.986 319.012 417.989 319.001 417.994 318.991C417.994 318.183 417.994 317.394 418.024 316.621L419.167 316.581L421.222 316.51H421.408C421.408 316.51 421.459 316.32 421.574 316.008C421.846 315.233 422.217 314.495 422.677 313.814C423.554 312.524 424.924 311.258 426.983 311.173C428.122 311.128 429.884 310.209 431.874 308.853C431.887 308.856 431.901 308.856 431.914 308.853C437.267 305.243 444.343 298.579 446.061 297.485C448.423 295.978 459.734 285.936 459.734 285.936C459.734 285.936 461.421 283.807 463.219 281.241L463.285 281.151C465.521 277.937 467.898 274.096 467.314 272.886C466.307 270.716 467.989 265.529 467.989 265.529C473.241 255.944 467.676 243.24 465.309 240.062ZM367.923 85.6171C367.972 85.767 368.002 85.922 368.014 86.079C367.888 85.9133 367.762 85.7376 367.636 85.5769L367.515 85.4162L367.43 85.2957L367.621 85.0346C367.621 85.0346 367.621 85.0346 367.621 85.0697C367.754 85.2325 367.856 85.418 367.923 85.6171ZM366.231 81.1682C365.682 81.2787 365.249 81.3791 364.967 81.4544C364.609 80.8217 364.267 80.1891 363.96 79.5463C364.767 80.0134 365.528 80.5565 366.231 81.1682ZM365.284 81.9616C365.283 81.9516 365.283 81.9414 365.284 81.9314L365.325 81.9616C365.531 82.0971 365.733 82.2277 365.919 82.3633C366.085 82.4838 366.236 82.5993 366.387 82.7198C366.287 82.8955 366.176 83.0763 366.065 83.2219C365.889 82.9457 365.722 82.6796 365.561 82.4034C365.461 82.293 365.37 82.1423 365.284 81.9616ZM362.263 75.7653C363.236 75.6696 364.216 75.6696 365.189 75.7653C365.325 75.7653 365.445 75.7904 365.566 75.8105C365.839 75.8526 366.108 75.9216 366.367 76.0164C366.962 76.8465 367.329 77.8178 367.43 78.8333L367.158 78.8735L366.891 78.9237C366.387 79.0091 365.884 79.0944 365.491 79.1748L364.987 79.2802C364.317 79.4258 363.93 79.5363 363.914 79.5413C363.849 79.4057 363.784 79.2802 363.713 79.1497C363.602 78.9337 363.486 78.7128 363.386 78.4969C363.285 78.281 363.154 78.0349 363.048 77.809C362.978 77.6885 362.927 77.568 362.872 77.4575C362.872 77.4073 362.822 77.3671 362.801 77.3169C362.772 77.2636 362.747 77.2082 362.726 77.1512C362.419 76.5285 362.137 75.9059 361.865 75.2933C361.834 75.2331 361.809 75.1678 361.784 75.1075L362.167 75.0824V75.213L362.263 75.7653ZM242.103 387.255C242.062 379.779 241.518 371.689 240.007 364.097C239.363 360.868 238.698 357.64 238.023 354.466C237.852 353.673 237.686 352.89 237.52 352.106L235.968 352.312H235.827C231.597 332.423 227.175 314.899 227.175 314.899C227.175 314.899 218.392 281.462 219.409 278.796C219.54 278.449 219.374 277.515 219.001 276.144C216.876 268.542 208.002 247.593 204.9 240.433C204.9 240.403 204.875 240.368 204.864 240.343C204.361 239.143 203.998 238.334 203.887 238.098L204.618 227.413L204.658 226.77L204.754 225.404L204.713 225.369L204.754 224.737C204.754 224.737 197.089 218.47 184.105 213.946C183.601 213.765 183.068 213.589 182.539 213.419C183.188 209.095 184.05 204.215 185.173 199.459C185.279 198.982 185.394 198.52 185.515 198.054C185.621 197.587 185.742 197.135 185.863 196.678C186.054 195.935 186.261 195.201 186.472 194.478C187.172 194.257 187.862 194.011 188.542 193.75L188.804 193.65C197.18 190.4 204.091 184.235 208.258 176.296C212.424 168.356 213.565 159.18 211.467 150.467C210.271 145.525 208.063 140.884 204.98 136.834C204.749 136.523 204.502 136.211 204.255 135.905C204.008 135.599 203.711 135.257 203.434 134.946C204.89 131.647 206.607 128.509 206.748 125.3C206.773 124.894 206.773 124.486 206.748 124.08V124.03C206.562 121.966 205.645 119.877 203.51 117.683C200.392 114.464 195.955 112.832 191.518 112.049C187.081 111.266 182.559 111.246 178.097 110.718C170.699 109.835 163.492 107.56 156.093 106.862C146.981 106.021 137.806 107.579 129.487 111.381C123.982 113.892 118.407 118.28 118.075 124.301C117.803 129.277 121.278 134.047 120.401 138.963C119.53 143.794 114.595 147.595 115.028 152.48C115.194 154.388 116.176 156.096 117.405 157.617C117.828 158.119 118.276 158.621 118.74 159.124C120.532 161.017 122.507 162.834 123.509 165.219C123.549 165.32 123.589 165.42 123.625 165.521C124.476 167.876 124.093 170.853 121.988 172.204C122 172.213 122.008 172.225 122.013 172.239C122.043 172.279 122.074 172.309 122.099 172.35C122.102 172.342 122.102 172.333 122.099 172.324C122.845 173.207 123.851 173.832 124.974 174.112L125.402 174.243C125.055 174.619 124.728 175.011 124.395 175.423L124.179 175.709C123.624 176.453 123.119 177.233 122.668 178.044C122.411 178.496 122.164 178.948 121.958 179.399C121.267 180.777 120.768 182.241 120.472 183.753C119.933 187.077 120.694 190.542 119.878 193.795C118.87 197.812 115.683 200.896 113.885 204.626C110.48 211.656 112.409 219.906 113.094 227.669C114.026 238.214 112.515 248.804 111.009 259.278C110.21 264.848 109.411 270.424 108.612 276.004C106.597 290.01 104.583 304.016 102.568 318.022C101.833 323.154 100.962 328.567 97.5319 332.528H97.5671C97.5671 332.528 97.5671 332.559 97.5319 332.569C98.5614 333.017 99.6564 333.299 100.775 333.402C105.252 333.849 109.997 331.69 114.026 329.33C117.216 327.492 120.238 325.376 123.056 323.008C122.643 324.514 122.199 326.156 121.726 327.924C121.728 327.941 121.728 327.957 121.726 327.974C116.04 349.566 106.894 389.148 106.894 389.148C106.894 389.148 106.063 390.871 104.986 393.436H247.008C245.346 391.428 243.8 389.505 242.591 387.953L242.103 387.255ZM136.946 187.609C136.981 187.549 137.006 187.494 137.041 187.439C137.041 187.599 137.041 187.755 137.041 187.906C137.041 188.056 137.041 188.192 137.041 188.332C137.041 188.473 137.041 188.458 137.041 188.528C137.041 188.598 137.041 188.528 137.041 188.528C137.041 188.734 136.996 188.94 136.961 189.146C136.961 189.146 136.961 189.171 136.961 189.191L137.464 189.377L138.049 189.618C141.5 190.977 144.995 192.207 148.534 193.308C148.897 193.424 149.264 193.534 149.632 193.64L149.707 194.262C149.798 194.9 149.884 195.548 149.964 196.196C149.964 196.196 149.964 196.226 149.964 196.246C150.191 198.038 150.413 199.826 150.609 201.573C150.609 201.573 141.362 198.059 141.478 203.396C141.473 203.491 141.473 203.587 141.478 203.682C141.468 203.809 141.468 203.937 141.478 204.064C141.564 208.222 142.868 210.687 143.13 211.952C143.114 212.005 143.087 212.053 143.05 212.093C142.826 212.578 142.749 213.117 142.828 213.645C142.819 214.543 142.89 215.44 143.039 216.326C142.767 216.492 142.501 216.657 142.234 216.828C142.032 216.954 141.841 217.094 141.644 217.235C140.409 212.962 138.793 208.808 136.815 204.822C135.43 201.98 133.873 199.018 133.889 195.899C133.889 195.699 133.889 195.493 133.914 195.287C133.97 194.383 134.143 193.49 134.427 192.631C134.543 192.304 134.669 191.983 134.81 191.666C135.139 190.915 135.507 190.181 135.913 189.467C136.175 188.995 136.452 188.528 136.719 188.056C136.805 187.916 136.885 187.77 136.966 187.629L136.946 187.609ZM363.073 77.809C363.003 77.6885 362.953 77.568 362.897 77.4575C362.897 77.4073 362.847 77.3671 362.827 77.3169C362.717 77.3685 362.604 77.4138 362.489 77.4525C362.268 77.5378 362.041 77.6182 361.809 77.6834C361.578 77.7487 361.482 77.7839 361.306 77.824L360.857 77.9395L360.898 78.0299C361.084 77.9897 361.265 77.9546 361.452 77.9044L361.502 78.527C361.714 78.527 361.91 78.4969 362.101 78.4969H362.373C362.766 78.4969 363.109 78.4969 363.381 78.4969C363.275 78.2709 363.164 78.0349 363.073 77.809Z" fill="url(#paint1_linear_4_6)"/>
<path d="M253.031 151.561L250.01 152.892C250.01 152.892 230.313 229.185 230.313 235.352C230.313 241.518 272.078 275.828 272.078 275.828L278.595 231.972C278.595 231.972 269.238 131.401 253.031 151.561Z" fill="#E8F5FF"/>
<path d="M344.646 127.294L327.195 118.215C326.218 114.061 324.483 110.121 322.078 106.591C319.525 102.915 316.13 99.305 311.9 97.4221C301.208 92.6418 357.126 67.5505 357.126 67.5505C358.006 70.5647 359.043 73.5312 360.233 76.4381C363.114 83.5282 367.893 92.697 374.052 95.3081C384.523 99.7519 344.646 127.294 344.646 127.294Z" fill="#FFB0B1"/>
<path opacity="0.1" d="M360.233 76.4381C357.844 84.8161 352.875 92.2341 346.029 97.6445C339.183 103.055 330.805 106.184 322.078 106.591C319.525 102.915 316.13 99.305 311.9 97.4221C301.208 92.6418 357.125 67.5505 357.125 67.5505C358.006 70.5647 359.043 73.5312 360.233 76.4381Z" fill="black"/>
<path d="M361.804 63.7695C361.806 71.9861 359.364 80.0189 354.787 86.8517C350.21 93.6845 343.703 99.0105 336.09 102.156C328.476 105.302 320.098 106.125 312.015 104.523C303.932 102.921 296.507 98.965 290.68 93.1552C284.852 87.3455 280.883 79.9432 279.275 71.8844C277.667 63.8256 278.492 55.4724 281.646 47.8813C284.8 40.2902 290.141 33.8021 296.994 29.2377C303.847 24.6732 311.903 22.2375 320.144 22.2385C325.622 22.2132 331.05 23.2702 336.116 25.3483C341.181 27.4264 345.784 30.4845 349.657 34.346C353.531 38.2075 356.598 42.7958 358.683 47.846C360.768 52.8962 361.829 58.3082 361.804 63.7695Z" fill="#FFB0B1"/>
<path d="M367.818 121.961L356.456 148.393L346.434 165.937H314.353L304.995 141.951L308.788 117.075H333.289L349.108 116.187L354.451 114.409L357.896 116.357L367.818 121.961Z" fill="#575A89"/>
<path opacity="0.1" d="M363.904 86.7267C363.904 86.7267 370.99 88.2331 364.645 93.4201C358.299 98.6071 336.406 115.102 336.406 115.102C336.406 115.102 344.097 121.931 342.505 129.93L367.984 115.77L372.516 93.1138C372.516 93.1138 373.025 86.3049 363.904 86.7267Z" fill="black"/>
<path opacity="0.1" d="M341.417 115.102L325.211 117.768C325.211 117.768 328.555 130.096 326.883 133.595C326.832 133.704 326.79 133.817 326.757 133.932L320.144 151.752L325.1 165.747L342.253 142.423L336.406 133.595C336.406 133.595 342.586 125.431 346.262 122.599C349.939 119.767 341.417 115.102 341.417 115.102Z" fill="black"/>
<path d="M341.417 114.414L325.211 117.075C325.211 117.075 328.555 129.403 326.883 132.902C326.832 133.011 326.79 133.124 326.757 133.239L320.144 151.059L325.1 165.054L342.253 141.715L336.406 132.887C336.406 132.887 342.586 124.723 346.262 121.891C349.939 119.059 341.417 114.414 341.417 114.414Z" fill="#DCE6F2"/>
<path d="M364.584 85.3961C364.584 85.3961 371.67 86.9025 365.32 92.0894C358.969 97.2764 336.406 115.102 336.406 115.102C336.406 115.102 344.762 120.6 343.175 128.594L368.654 114.439L373.186 91.7831C373.186 91.7831 373.69 84.9743 364.584 85.3961Z" fill="#575A89"/>
<path opacity="0.1" d="M323.191 108.163C323.191 108.163 324.738 111.045 331.562 116.242C331.562 116.242 320.2 122.267 324.546 130.738L307.166 126.219L304.492 117.889L323.191 108.163Z" fill="black"/>
<path d="M322.521 107.5C322.521 107.5 324.067 110.382 330.892 115.579C330.892 115.579 319.53 121.574 323.876 130.07L306.501 125.551L303.827 117.226L322.521 107.5Z" fill="#575A89"/>
<path opacity="0.1" d="M367.818 121.961L356.456 148.393L346.454 165.937H314.353L304.995 141.951L308.783 117.075H315.597C315.486 122.88 317.611 129.699 317.475 132.235C317.243 136.402 323.71 158.888 323.71 158.888C323.71 158.888 337.242 137.065 342.586 135.122C345.945 133.902 353.061 123.749 357.891 116.357L367.818 121.961Z" fill="black"/>
<path d="M412.575 261.056L411.421 262.502C411.421 262.502 419.777 304.314 417.465 313.809C417.072 315.521 416.848 317.266 416.795 319.021V319.096C416.387 328.757 419.313 341.296 419.313 341.296C419.313 341.296 421.65 378.252 420.32 393.452H263.884C262.968 370.976 261.981 341.858 262.877 338.629C264.388 333.302 267.41 313.975 267.41 313.975L267.742 304.816C267.742 304.816 267.742 295.963 268.014 286.102C268.13 281.668 268.301 277.013 268.548 272.886C268.865 267.694 269.308 263.32 269.918 261.171C270.293 259.542 270.509 257.881 270.562 256.21C270.562 256.054 270.562 255.894 270.593 255.733C270.593 255.231 270.643 254.689 270.663 254.131C270.663 253.976 270.663 253.82 270.663 253.629C270.759 250.395 270.724 246.559 270.618 242.582C270.618 242.366 270.618 242.145 270.618 241.924C270.532 238.942 270.406 235.899 270.265 233.007C269.827 223.968 269.258 216.326 269.258 216.326L250.045 152.857L255.222 140.143L269.59 131.366L296.157 115.373C309.115 104.753 317.646 106.029 320.9 107.194C321.216 107.301 321.525 107.427 321.826 107.57C321.927 107.62 322.008 107.661 322.083 107.706C322.187 107.755 322.286 107.812 322.38 107.876C321.49 108.304 320.716 108.939 320.124 109.729C319.458 110.628 318.983 111.653 318.729 112.742C318.559 113.417 318.439 114.103 318.372 114.796C318.306 115.524 318.281 116.277 318.281 117.035C318.317 118.698 318.46 120.357 318.709 122.001C318.709 122.031 318.709 122.072 318.709 122.112C318.875 123.287 319.082 124.437 319.283 125.516C319.281 125.535 319.281 125.553 319.283 125.571C319.515 126.832 319.747 127.997 319.903 129.001C319.933 129.182 319.958 129.347 319.983 129.503C320.094 130.167 320.146 130.839 320.139 131.512C320.196 133.136 320.415 134.751 320.794 136.332C320.925 136.995 321.076 137.703 321.242 138.441C321.469 139.445 321.716 140.54 321.983 141.655C322.129 142.267 322.285 142.9 322.446 143.528C322.506 143.779 322.572 144.03 322.632 144.286L322.733 144.682C323.806 148.935 324.969 153.168 325.684 155.729C326.107 157.236 326.374 158.165 326.374 158.165C326.374 158.165 333.959 145.938 340.012 138.978C340.103 138.878 340.184 138.782 340.269 138.692C340.869 138.004 341.458 137.376 342.022 136.824C343.256 135.599 344.364 134.725 345.255 134.404C345.445 134.334 345.629 134.249 345.804 134.148C348.282 132.747 352.281 127.66 356.023 122.333C356.39 121.831 356.748 121.283 357.11 120.766C357.941 119.571 358.747 118.371 359.508 117.221C360.092 116.342 360.651 115.489 361.18 114.675C363.698 110.769 365.471 107.856 365.471 107.856L368.966 107.701L369.575 107.671H369.983L385.852 106.937C385.852 106.937 386.537 107.053 387.665 107.279C387.726 107.279 387.786 107.279 387.852 107.319C393.482 108.434 409.125 111.964 410.082 116.86C411.25 122.855 436.482 130.854 436.482 130.854C436.814 134.871 442.994 137.517 442.994 137.517C442.994 137.517 452.351 162.172 449.848 171.832C447.375 181.373 456.284 204.973 456.521 205.636L454.814 207.785L412.575 261.056Z" fill="#E8F5FF"/>
<path opacity="0.1" d="M363.899 84.9744C363.899 84.9744 379.345 80.6059 382.856 89.599C386.366 98.5921 394.218 134.911 394.218 134.911C394.218 134.911 373.831 138.742 368.487 134.911C365.353 132.637 361.474 131.626 357.624 132.079L346.096 139.907L342.692 138.903C342.692 138.903 361.134 111.567 365.143 102.278C369.152 92.9883 370.507 88.8357 363.899 84.9744Z" fill="black"/>
<path d="M363.23 82.9658C363.23 82.9658 378.686 78.5973 382.211 87.5904C385.737 96.5835 393.573 132.902 393.573 132.902C393.573 132.902 373.191 136.734 367.843 132.902C364.71 130.629 360.833 129.617 356.985 130.07L345.447 137.899L342.042 136.894C342.042 136.894 360.485 109.559 364.494 100.269C368.503 90.9798 369.837 86.8372 363.23 82.9658Z" fill="#E8F5FF"/>
<path opacity="0.1" d="M259.548 227.855C259.548 227.855 271.076 230.687 273.252 237.184C275.428 243.682 264.731 243.848 264.731 243.848C264.731 243.848 258.214 232.354 259.548 227.855Z" fill="black"/>
<path opacity="0.1" d="M302.487 275.828C302.487 275.828 274.254 333.467 280.771 338.966C287.288 344.464 302.487 275.828 302.487 275.828Z" fill="black"/>
<path opacity="0.1" d="M341.417 233.353C341.417 233.353 363.975 289.34 359.462 297.987C354.95 306.634 369.152 297.987 369.152 297.987L341.417 233.353Z" fill="black"/>
<path d="M372.829 288.657C372.829 288.657 296.64 292.323 318.865 315.978C341.09 339.633 386.699 316.982 386.699 316.982L372.829 288.657Z" fill="#FFB0B1"/>
<path opacity="0.1" d="M361.804 63.7694C361.811 69.2175 360.738 74.6134 358.647 79.6467C357.947 79.727 357.247 79.7772 356.572 79.8073C355.564 77.603 356.103 75.0572 356.123 72.6319C356.144 70.2067 355.247 67.3546 352.905 66.7018C348.237 65.3913 345.013 74.0931 340.41 72.5215C336.885 71.3264 337.807 65.9938 335.777 62.9158C334.17 60.4804 330.952 59.7925 328.449 58.2661C323.126 55.0072 323.287 49.7952 320.814 44.8643C318.226 39.6974 312.756 41.2238 308.007 44.2718C304.401 46.5916 301.289 49.6998 297.431 51.5476C294.092 53.1544 290.34 53.7369 286.638 53.8222C284.359 53.9103 282.08 53.6701 279.87 53.1092C282.469 43.3649 288.535 34.8959 296.935 29.2816C305.336 23.6673 315.498 21.291 325.526 22.5958C335.554 23.9006 344.764 28.7974 351.438 36.3731C358.112 43.9489 361.795 53.6862 361.799 63.7694H361.804Z" fill="black"/>
<path d="M308.022 42.9413C304.411 45.2611 301.304 48.3642 297.446 50.2221C294.107 51.8239 290.355 52.4064 286.653 52.4917C282.121 52.5922 277.241 51.7988 274.143 48.535C271.298 45.5222 270.618 40.8876 271.822 36.9358C273.025 32.9841 275.911 29.7052 279.3 27.3301C282.69 24.955 286.623 23.3131 288.869 19.9137C290.058 18.1161 290.632 15.9971 291.619 14.084C294.777 7.96305 301.878 4.649 308.742 4.23726C315.607 3.82551 322.411 5.86415 328.948 8.07351C335.485 10.2829 342.072 12.7132 348.972 13.1701C352.044 13.3609 355.237 13.1701 358.088 14.33C361.92 15.8816 364.433 19.5923 366.146 23.3683C368.064 27.6264 369.258 32.2761 369.057 36.9258C368.634 46.8528 362.056 56.5941 364.947 66.1044C365.713 68.6402 367.148 71.2412 366.382 73.7769C365.264 77.4776 360.475 78.3212 356.602 78.4969C355.595 76.2926 356.134 73.7418 356.154 71.3215C356.174 68.9013 355.277 66.0442 352.941 65.3914C348.267 64.0909 345.044 72.7777 340.451 71.2111C336.95 70.011 337.857 64.6834 335.822 61.6054C334.216 59.165 330.993 58.4821 328.495 56.9556C323.171 53.6968 323.332 48.4847 320.86 43.5539C318.251 38.3619 312.776 39.8883 308.022 42.9413Z" fill="#575A89"/>
<path d="M234.145 234.016L230.303 235.352C230.303 235.352 231.813 258.008 226.777 264.505C221.741 271.003 243.316 287.156 243.316 287.156C243.316 287.156 272.889 286.99 273.725 284.645C274.561 282.301 272.214 242.668 272.214 242.668C272.214 242.668 256.34 236.501 257.675 226.675C257.675 226.675 252.83 249.828 245.648 248.829C238.466 247.829 230.313 241.849 234.145 234.016Z" fill="#E8F5FF"/>
<path opacity="0.1" d="M246.963 255.838C252.562 255.838 257.101 251.7 257.101 246.594C257.101 241.489 252.562 237.35 246.963 237.35C241.364 237.35 236.825 241.489 236.825 246.594C236.825 251.7 241.364 255.838 246.963 255.838Z" fill="black"/>
<path d="M258.047 234.684C258.047 234.684 256.033 173.384 238.497 187.042C220.961 200.7 220.789 217.034 224.128 221.859C227.467 226.685 238.174 250.842 238.174 250.842C239.849 251.81 241.73 252.368 243.663 252.472C245.596 252.575 247.526 252.22 249.295 251.436C251.064 250.652 252.622 249.462 253.84 247.962C255.058 246.462 255.903 244.696 256.305 242.808L258.047 234.684Z" fill="#FFB0B1"/>
<path opacity="0.1" d="M367.44 79.4107C367.358 79.1414 367.201 78.901 366.986 78.7178C366.12 77.9295 364.257 77.6533 361.447 77.8943L361.562 79.2199C365.309 78.8986 366.05 79.6417 366.145 79.7672V79.8928L366.261 80.0585C366.728 80.6845 367.059 81.4009 367.233 82.1618C367.406 82.9227 367.418 83.7113 367.269 84.4772C366.448 88.5695 361.406 91.8284 361.356 91.8635L361.235 91.9338L361.16 92.0493C358.984 95.2679 346.68 104.351 343.462 106.701L343.18 106.38C341.74 107.625 329.079 118.677 328.394 122.91C327.951 125.566 324.949 126.596 323.861 126.882C322.713 126.013 318.986 123.056 317.047 119.742C315.229 116.623 322.547 110.538 323.191 108.163L322.184 107.133C322.078 107.515 312.681 116.272 315.294 120.746C317.389 124.336 321.217 127.409 322.557 128.423C322.129 132.3 319.464 155.061 315.37 160.454C310.283 167.158 306.008 200.941 306.481 212.736C306.899 223.215 304.154 243.009 294.988 251.51C293.401 253.046 291.487 254.205 289.388 254.901C287.289 255.597 285.06 255.811 282.866 255.527H282.755H282.644C282.513 255.527 269.218 256.883 258.047 247.493C248.907 239.825 243.729 227.312 242.652 210.29H242.43L242.339 205.334C244.818 204.949 247.05 203.62 248.566 201.628C250.083 199.636 250.766 197.136 250.472 194.652C250.179 192.168 248.931 189.895 246.991 188.309C245.051 186.723 242.57 185.949 240.07 186.149C237.569 186.349 235.244 187.507 233.582 189.38C231.92 191.254 231.052 193.696 231.158 196.195C231.265 198.694 232.339 201.054 234.154 202.78C235.97 204.506 238.385 205.463 240.894 205.45H241.005L241.095 210.376L240.652 210.406C241.76 227.98 247.199 240.98 256.768 249.009C264.041 255.018 273.331 258.05 282.76 257.49C283.429 257.563 284.102 257.6 284.775 257.601C289.097 257.623 293.255 255.956 296.358 252.956C306.013 243.993 308.949 223.471 308.49 212.635C307.987 200.137 312.474 167.569 316.976 161.639C321.388 155.82 324.062 133.143 324.531 128.75C326.127 128.303 329.738 126.892 330.353 123.226C330.796 120.575 339.252 112.406 344.454 107.881L344.298 107.701C347.098 105.662 355.806 99.2347 360.122 95.1072C361.462 93.8268 362.791 92.5464 364.181 91.3262C365.853 89.85 367.979 87.505 368.538 84.7333C368.728 83.8183 368.729 82.8742 368.54 81.9589C368.352 81.0436 367.977 80.1764 367.44 79.4107Z" fill="black"/>
<path d="M322.386 128.107C322.174 127.961 317.158 124.381 314.645 120.073C312.036 115.599 321.434 106.847 321.535 106.465L322.542 107.495C321.902 109.865 314.584 115.956 316.403 119.069C318.694 123 323.519 126.44 323.569 126.475L322.386 128.107Z" fill="#353146"/>
<path d="M342.808 107.676L342.022 106.596C342.183 106.481 358.002 95.0722 360.495 91.3815L360.575 91.2711L360.691 91.1958C360.742 91.1606 365.783 87.9068 366.604 83.8095C366.755 83.0445 366.744 82.2563 366.57 81.496C366.397 80.7357 366.065 80.0201 365.597 79.3958L365.481 79.225V79.1045C365.38 78.974 364.64 78.2358 360.893 78.5572L360.777 77.2266C363.592 76.9856 365.451 77.2617 366.317 78.0501C366.532 78.2351 366.691 78.477 366.775 78.748C367.32 79.5115 367.702 80.378 367.897 81.2943C368.093 82.2106 368.099 83.1571 367.913 84.0756C367.354 86.8524 365.234 89.1973 363.557 90.6685C362.172 91.8887 360.837 93.1792 359.503 94.4495C354.441 99.285 343.362 107.279 342.808 107.676Z" fill="#E8F5FF"/>
<path d="M241.689 203.586L240.355 203.611L240.504 211.699L241.838 211.674L241.689 203.586Z" fill="#E8F5FF"/>
<path d="M240.244 204.812C245.626 204.812 249.989 200.462 249.989 195.096C249.989 189.73 245.626 185.38 240.244 185.38C234.862 185.38 230.499 189.73 230.499 195.096C230.499 200.462 234.862 204.812 240.244 204.812Z" fill="#587EEC"/>
<path d="M240.244 203.165C244.714 203.165 248.337 199.552 248.337 195.096C248.337 190.639 244.714 187.027 240.244 187.027C235.774 187.027 232.151 190.639 232.151 195.096C232.151 199.552 235.774 203.165 240.244 203.165Z" fill="#E8F5FF"/>
<path d="M284.14 256.953C283.467 256.954 282.795 256.919 282.126 256.848C272.697 257.401 263.409 254.371 256.134 248.367C246.565 240.333 241.136 227.348 240.018 209.758L242.032 209.633C243.11 226.655 248.287 239.173 257.433 246.835C268.603 256.2 281.894 254.869 282.025 254.869H282.136H282.247C284.441 255.151 286.671 254.937 288.77 254.241C290.87 253.546 292.785 252.387 294.374 250.852C303.535 242.351 306.28 222.557 305.862 212.078C305.358 200.273 309.634 166.49 314.725 159.791C319.182 153.921 321.947 127.464 321.978 127.198L322.053 126.445L322.798 126.314C322.844 126.314 327.195 125.491 327.739 122.247C328.444 118.019 341.085 106.968 342.52 105.717L343.835 107.224C338.612 111.743 330.156 119.917 329.733 122.574C329.119 126.249 325.508 127.655 323.916 128.097C323.413 132.496 320.759 155.167 316.362 160.986C311.86 166.917 307.372 199.485 307.876 211.982C308.309 222.818 305.403 243.345 295.749 252.303C292.64 255.31 288.471 256.98 284.14 256.953Z" fill="#353146"/>
<g opacity="0.1">
<path opacity="0.1" d="M366.095 51.8992C366.921 48.8563 367.918 45.7933 368.613 42.7102C367.782 45.8084 366.78 48.8563 366.095 51.8992Z" fill="black"/>
<path opacity="0.1" d="M357.67 75.8105C356.662 73.6062 357.201 71.0554 357.221 68.6351C357.241 66.2149 356.345 63.3829 354.008 62.705C349.335 61.4045 346.111 70.0963 341.518 68.5247C337.993 67.3246 338.925 61.997 336.89 58.9189C335.283 56.4786 332.065 55.7957 329.567 54.2692C324.239 51.0104 324.4 45.7983 321.932 40.8674C319.339 35.6955 313.874 37.222 309.12 40.2749C305.509 42.5948 302.402 45.7029 298.544 47.5558C295.205 49.1576 291.453 49.74 287.751 49.8254C283.244 49.9309 278.338 49.1325 275.241 45.8686C272.854 43.358 271.993 39.6774 272.486 36.2278C272.401 36.4638 272.325 36.6998 272.25 36.9358C271.041 40.8875 271.746 45.5322 274.571 48.5349C277.669 51.7988 282.574 52.5921 287.081 52.4917C290.788 52.4063 294.535 51.8239 297.879 50.2221C301.747 48.3642 304.854 45.2611 308.455 42.9412C313.209 39.8883 318.679 38.3618 321.267 43.5337C323.735 48.4646 323.579 53.6767 328.902 56.9355C331.421 58.4419 334.619 59.1449 336.23 61.5852C338.245 64.6733 337.353 69.9909 340.859 71.1909C345.447 72.7576 348.67 64.0708 353.343 65.3713C355.68 66.0241 356.582 68.8862 356.557 71.3014C356.531 73.7167 356.008 76.2725 357.005 78.4768C360.878 78.3011 365.667 77.4726 366.79 73.7568C366.945 73.2236 367.016 72.6698 367.002 72.1149C365.365 74.9318 361.155 75.6549 357.67 75.8105Z" fill="black"/>
</g>
<path opacity="0.1" d="M448.69 199.535L454.537 205.701C454.537 205.701 459.216 239.68 461.552 242.858C463.889 246.037 469.409 258.68 464.227 268.176C464.227 268.176 462.555 273.343 463.557 275.507C464.559 277.671 456.043 288.502 456.043 288.502C456.043 288.502 444.847 298.494 442.505 299.995C440.163 301.497 427.804 313.488 423.629 313.653C419.454 313.819 418.09 318.986 418.09 318.986L394.53 319.82C394.53 319.82 381.516 319.142 378.686 320.974C378.686 320.974 380.197 301.15 365.657 288.155L384.201 281.492C384.201 281.492 391.221 278.479 393.392 275.331C394.757 273.401 396.694 271.945 398.932 271.168C398.932 271.168 404.109 267.503 404.275 265.504C404.441 263.506 410.606 261.055 410.606 261.055L407.116 231.355L408.954 182.046C408.954 182.046 414.801 140.731 427.165 143.066C439.529 145.4 448.69 199.535 448.69 199.535Z" fill="black"/>
<path d="M450.704 199.535L456.551 205.701C456.551 205.701 461.23 239.68 463.567 242.858C465.904 246.037 471.423 258.68 466.241 268.176C466.241 268.176 464.574 273.343 465.576 275.507C466.578 277.671 458.057 288.502 458.057 288.502C458.057 288.502 446.862 298.494 444.52 299.995C442.178 301.497 429.819 313.488 425.644 313.653C421.469 313.819 420.104 318.986 420.104 318.986L396.544 319.82C396.544 319.82 383.521 319.142 380.7 320.974C380.7 320.974 382.211 301.15 367.672 288.155L386.215 281.492C386.215 281.492 393.236 278.479 395.406 275.331C396.772 273.401 398.709 271.945 400.946 271.168C400.946 271.168 406.123 267.503 406.289 265.504C406.456 263.506 412.62 261.055 412.62 261.055L409.13 231.355L410.968 182.046C410.968 182.046 416.815 140.731 429.179 143.066C441.543 145.4 450.704 199.535 450.704 199.535Z" fill="#E8F5FF"/>
<path opacity="0.1" d="M428.968 249.346C428.968 249.346 446.177 244.827 450.689 250.35C455.202 255.874 428.968 249.346 428.968 249.346Z" fill="black"/>
<path opacity="0.1" d="M424.959 256.923C430.806 261.005 448.851 261.171 448.851 261.171L424.959 256.923Z" fill="black"/>
<path opacity="0.1" d="M433.813 277.329C434.316 277.495 446.217 290.159 451.213 286.328C456.209 282.496 433.813 277.329 433.813 277.329Z" fill="black"/>
<path opacity="0.1" d="M273.539 171.049C273.539 171.049 277.034 195.041 275.312 204.812C273.589 214.584 279.875 226.69 279.875 226.69L273.539 171.049Z" fill="black"/>
<path d="M196.162 180.805C192.133 183.954 189.192 191.405 187.061 199.595C183.345 213.881 182.131 230.446 182.131 230.446C182.131 230.446 150.05 223.115 152.387 219.786C153.857 217.692 151.883 201.915 150.236 190.476C149.254 183.718 148.378 178.471 148.378 178.471C148.378 178.471 207.191 172.139 196.162 180.805Z" fill="#FFB0B1"/>
<path opacity="0.1" d="M196.162 180.138C192.133 183.291 189.192 190.738 187.061 198.927C180.67 200.862 173.872 201.037 167.389 199.432C160.905 197.828 154.979 194.504 150.236 189.814C149.254 183.05 148.378 177.803 148.378 177.803C148.378 177.803 207.191 171.476 196.162 180.138Z" fill="black"/>
<path d="M213.406 162.192C213.409 170.925 210.314 179.378 204.667 186.055C199.02 192.732 191.186 197.202 182.552 198.673C173.917 200.145 165.039 198.524 157.488 194.096C149.938 189.669 144.201 182.721 141.294 174.483C138.388 166.244 138.498 157.246 141.605 149.08C144.713 140.915 150.618 134.109 158.275 129.866C165.932 125.624 174.847 124.219 183.443 125.901C192.038 127.582 199.76 132.241 205.242 139.053C210.525 145.615 213.404 153.777 213.406 162.192Z" fill="#FFB0B1"/>
<path opacity="0.1" d="M242.656 393.451H232.08L231.189 374.828L230.257 355.551C230.257 355.551 232.659 355.194 236.487 354.662L238.033 354.456H238.159C238.995 358.368 239.821 362.385 240.617 366.397C241.941 373.519 242.631 380.745 242.677 387.988C242.677 388.49 242.677 388.993 242.677 389.465C242.707 390.805 242.677 392.146 242.656 393.451Z" fill="black"/>
<path d="M240.627 393.452H107.992C108.566 392.151 108.949 391.363 108.949 391.363C108.949 391.363 119.56 345.077 124.954 325.494C124.956 325.477 124.956 325.46 124.954 325.443C125.628 322.783 126.442 320.16 127.392 317.585C127.453 317.41 127.533 317.242 127.629 317.083C130.298 312.755 133.642 308.09 128.963 301.427C124.284 294.763 125.941 265.444 125.941 265.444C125.941 265.444 131.622 240.453 137.636 227.127C138.548 225.062 139.843 223.189 141.453 221.603C141.976 221.093 142.535 220.62 143.125 220.187C143.574 219.851 144.041 219.541 144.525 219.258L144.621 219.198C147.147 217.77 149.952 216.902 152.845 216.652C154.9 216.438 156.975 216.496 159.014 216.823C168.765 218.249 176.571 220.634 182.776 223.351C199.592 230.717 204.683 240.589 204.784 240.795L204.824 240.88C205.499 242.452 215.37 265.429 218.926 276.149C219.847 278.941 220.351 280.905 220.15 281.442C219.142 284.103 227.835 317.419 227.835 317.419C227.835 317.419 231.864 333.487 235.893 352.322C236.069 353.106 236.235 353.889 236.397 354.682C237.117 358.102 237.832 361.586 238.522 365.066C239.859 372.238 240.548 379.514 240.582 386.808C240.656 389.081 240.671 391.296 240.627 393.452Z" fill="#EB5569"/>
<path opacity="0.1" d="M152.054 205.194C152.054 205.194 142.904 201.679 143.014 207.011C143.125 212.344 145.245 214.895 144.576 215.673C143.906 216.451 144.908 221.116 144.908 221.116C144.908 221.116 157.272 221.116 162.953 223.667C168.634 226.218 189.574 231.33 192.249 232.886C194.923 234.443 204.839 241.422 204.839 241.422L205.731 228.206C205.731 228.206 195.482 219.766 178.666 215.437C161.85 211.109 152.054 205.194 152.054 205.194Z" fill="black"/>
<path d="M152.054 204.526C152.054 204.526 142.904 201.011 143.014 206.344C143.125 211.676 145.245 214.227 144.576 215.005C143.906 215.784 144.908 220.448 144.908 220.448C144.908 220.448 157.272 220.448 162.953 223.004C168.634 225.56 189.574 230.667 192.249 232.218C194.923 233.77 204.839 240.754 204.839 240.754L205.741 227.579C205.741 227.579 195.492 219.138 178.676 214.81C161.86 210.481 152.054 204.526 152.054 204.526Z" fill="#EB5569"/>
<path opacity="0.1" d="M179.678 236.331C179.678 236.331 197.164 255.206 196.273 260.433C195.381 265.66 179.678 236.331 179.678 236.331Z" fill="black"/>
<path opacity="0.1" d="M151.274 304.515C151.274 304.515 138.457 316.29 134.679 316.957C130.902 317.625 137.575 319.845 141.916 318.072C146.258 316.3 155.514 311.635 155.514 311.635L151.274 304.515Z" fill="black"/>
<path d="M245.834 393.452H215.944C211.764 389.836 207.811 386.487 205.292 384.474C201.263 381.25 198.358 376.505 196.504 372.689C196.086 371.82 195.724 371.006 195.416 370.268C194.866 368.997 194.382 367.698 193.966 366.377L216.1 353.271C217.324 354.308 218.473 355.429 219.54 356.626L219.807 356.932C221.036 358.378 222.119 360.02 222.214 361.366C222.325 362.932 226.697 368.993 231.164 374.813C235.696 380.733 240.34 386.392 240.647 386.773C240.647 386.773 241.412 387.813 242.661 389.409C243.543 390.564 244.631 391.95 245.834 393.452Z" fill="#FFB0B1"/>
<path opacity="0.1" d="M205.242 139.054C204.18 141.444 203.228 143.924 203.087 146.585C202.689 154.268 203.334 171.446 194.802 175.302C190.577 177.2 186.054 173.033 181.421 172.932C178.087 172.862 175.03 174.971 172.995 177.607C170.961 180.243 169.696 183.371 168.221 186.354C166.878 189.061 165.33 191.663 163.593 194.137C163.073 194.894 162.501 195.614 161.88 196.291C156.678 194.102 152.046 190.759 148.336 186.515C144.626 182.271 141.937 177.239 140.473 171.802C139.01 166.364 138.81 160.666 139.89 155.14C140.97 149.615 143.301 144.408 146.704 139.916C150.108 135.425 154.496 131.767 159.532 129.222C164.568 126.677 170.121 125.312 175.767 125.231C181.413 125.15 187.002 126.354 192.11 128.753C197.218 131.152 201.71 134.682 205.242 139.074V139.054Z" fill="black"/>
<path d="M202.417 145.23C202.014 152.912 202.664 170.09 194.127 173.941C189.902 175.839 185.379 171.677 180.746 171.576C177.412 171.501 174.36 173.615 172.32 176.246C170.281 178.877 169.027 182.011 167.546 184.998C166.202 187.705 164.655 190.307 162.918 192.781C161.88 194.247 160.732 195.719 159.135 196.542C156.355 197.988 152.986 197.175 150.005 196.246C146.137 195.031 142.326 193.662 138.572 192.138C138.658 191.573 138.702 191.003 138.703 190.431C138.592 190.642 138.472 190.838 138.351 191.049L138.114 191.461C137.686 192.214 137.268 192.967 136.885 193.74C136.739 194.036 136.598 194.343 136.472 194.649C135.966 195.789 135.648 197.003 135.53 198.244C135.274 201.593 136.931 204.772 138.401 207.785C144.057 219.439 147.552 233.067 143.296 245.294C141.453 250.611 138.26 255.336 135.928 260.473C131.852 269.571 130.652 279.691 132.489 289.486C133.652 295.572 135.984 301.597 135.41 307.768C134.402 318.388 125.216 326.292 116.015 331.725C111.044 334.647 104.96 337.248 99.6824 334.939C103.047 331.022 103.913 325.604 104.638 320.492C106.622 306.55 108.612 292.601 110.606 278.645C111.402 273.091 112.196 267.538 112.988 261.984C114.469 251.55 115.97 241 115.043 230.501C114.368 222.763 112.464 214.548 115.829 207.544C117.606 203.833 120.774 200.76 121.761 196.763C122.572 193.514 121.817 190.06 122.351 186.751C122.643 185.245 123.137 183.786 123.821 182.412C124.692 180.548 125.828 178.82 127.195 177.28C125.846 176.889 124.587 176.352 123.821 175.227C125.987 173.821 126.314 170.652 125.332 168.272C124.35 165.892 122.386 164.08 120.618 162.202C118.85 160.324 117.148 158.134 116.927 155.573C116.498 150.698 121.384 146.922 122.245 142.111C123.116 137.216 119.671 132.456 119.948 127.5C120.271 121.509 125.79 117.156 131.24 114.63C139.463 110.835 148.546 109.276 157.569 110.111C164.912 110.804 172.018 113.068 179.341 113.947C183.758 114.449 188.235 114.499 192.621 115.273C197.008 116.046 201.405 117.678 204.492 120.886C212.63 129.347 202.88 136.312 202.417 145.23Z" fill="#575A89"/>
<path opacity="0.1" d="M195.608 372.694C193.039 371.584 188.366 372.247 180.343 369.811C172.32 367.376 170.774 356.369 170.774 356.369V356.334C170.678 356.083 169.933 354.446 164.887 348.712C159.311 342.38 147.26 310.4 147.26 310.4C147.26 310.4 136.573 298.956 136.91 294.738C137.248 290.52 135.012 279.298 135.233 266.745C135.455 254.191 159.291 245.866 159.291 245.866C205.187 237.757 194.379 290.51 193.155 294.507C191.931 298.504 198.282 309.3 198.282 309.3C197.386 314 201.958 321.276 201.958 321.276C201.958 321.276 203.066 327.713 203.293 330.158C203.306 330.271 203.331 330.382 203.369 330.49C204.104 332.794 210.097 334.883 212.535 336.154C215.098 337.489 223.342 349.149 223.342 349.149C225.12 357.71 198.166 373.818 195.608 372.694Z" fill="black"/>
<path d="M196.943 370.685C194.379 369.57 189.7 370.238 181.683 367.798C173.665 365.357 172.114 354.361 172.114 354.361V354.326C172.023 354.07 171.273 352.438 166.226 346.703C160.651 340.371 148.6 308.386 148.6 308.386C148.6 308.386 137.913 296.947 138.245 292.73C138.577 288.512 136.351 277.289 136.573 264.746C136.795 252.203 160.616 243.883 160.616 243.883C206.511 235.773 195.704 288.527 194.48 292.524C193.256 296.521 199.607 307.316 199.607 307.316C198.71 312.016 203.283 319.292 203.283 319.292C203.283 319.292 204.391 325.729 204.623 328.175C204.631 328.288 204.655 328.399 204.693 328.506C205.429 330.811 211.422 332.9 213.864 334.17C216.423 335.501 224.672 347.165 224.672 347.165C226.46 355.711 199.506 371.82 196.943 370.685Z" fill="#EB5569"/>
<path opacity="0.1" d="M161.523 271.424C161.523 271.424 181.572 292.514 186.805 292.514C192.037 292.514 161.523 271.424 161.523 271.424Z" fill="black"/>
<path d="M196.942 370.685C194.379 369.57 189.7 370.238 181.683 367.798C173.665 365.357 172.114 354.361 172.114 354.361V354.326C177.427 350.811 190.884 340.884 196.187 337.253C199.919 334.708 202.966 330.967 204.749 328.486C205.484 330.791 211.477 332.88 213.92 334.15C216.478 335.481 224.727 347.145 224.727 347.145C226.46 355.712 199.506 371.82 196.942 370.685Z" fill="#FF748E"/>
<g opacity="0.1">
<path opacity="0.1" d="M123.851 175.282C123.877 175.322 123.912 175.357 123.942 175.397C124.093 175.207 124.249 175.016 124.41 174.835C124.239 175.001 124.052 175.151 123.851 175.282Z" fill="black"/>
<path opacity="0.1" d="M135.535 198.3C135.747 195.513 137.243 193.057 138.643 190.607C137.726 190.255 136.81 189.899 135.903 189.527C135.989 188.964 136.033 188.395 136.034 187.825C134.619 190.336 133.078 192.806 132.861 195.633C132.604 198.988 134.261 202.161 135.732 205.174C141.393 216.823 144.883 230.451 140.627 242.683C138.779 247.995 135.591 252.725 133.259 257.862C129.184 266.959 127.986 277.077 129.824 286.87C130.978 292.961 133.315 298.981 132.74 305.152C131.733 315.772 122.552 323.676 113.346 329.104C109.584 331.323 105.187 333.357 100.982 333.211C100.593 333.836 100.158 334.432 99.6824 334.994C104.965 337.319 111.044 334.703 116.015 331.77C125.226 326.347 134.428 318.464 135.435 307.824C136.009 301.653 133.672 295.632 132.514 289.541C130.675 279.75 131.87 269.632 135.938 260.533C138.255 255.402 141.478 250.667 143.306 245.354C147.562 233.122 144.067 219.494 138.411 207.845C136.946 204.812 135.279 201.654 135.535 198.3Z" fill="black"/>
<path opacity="0.1" d="M204.482 120.947C203.986 120.44 203.454 119.97 202.89 119.541C208.994 127.434 200.181 134.143 199.743 142.639C199.35 150.321 199.994 167.504 191.458 171.35C187.238 173.253 182.71 169.086 178.082 168.985C174.743 168.915 171.691 171.029 169.651 173.66C167.611 176.291 166.357 179.425 164.882 182.407C163.535 185.114 161.987 187.716 160.248 190.19C159.241 191.661 158.063 193.128 156.461 193.956C153.691 195.397 150.322 194.589 147.335 193.655C144.431 192.744 141.554 191.74 138.703 190.642C138.697 191.165 138.654 191.687 138.572 192.204C142.329 193.73 146.142 195.099 150.01 196.311C152.991 197.245 156.36 198.053 159.135 196.612C160.732 195.784 161.89 194.313 162.923 192.841C164.662 190.37 166.209 187.77 167.551 185.063C169.032 182.081 170.281 178.942 172.325 176.311C174.37 173.68 177.417 171.571 180.751 171.642C185.384 171.742 189.912 175.91 194.132 174.007C202.669 170.16 202.019 152.977 202.417 145.295C202.88 136.362 212.63 129.403 204.482 120.947Z" fill="black"/>
</g>
<path opacity="0.1" d="M138.119 191.466C137.691 192.219 137.273 192.972 136.89 193.745C136.744 194.041 136.603 194.348 136.477 194.654C133.838 192.003 127.412 185.701 123.826 183.748C124.698 181.885 125.834 180.156 127.2 178.616C127.2 178.616 135.747 183.12 138.119 191.466Z" fill="black"/>
<path d="M138.356 191.054C136.376 182.121 127.2 177.286 127.2 177.286C125.833 178.825 124.697 180.553 123.826 182.417C127.608 184.481 134.579 191.4 136.89 193.745L138.356 191.054Z" fill="#EB5569"/>
<defs>
<linearGradient id="paint0_linear_4_6" x1="368.094" y1="48.3542" x2="368.094" y2="39.1251" gradientUnits="userSpaceOnUse">
<stop stop-color="#808080" stop-opacity="0.25"/>
<stop offset="0.54" stop-color="#808080" stop-opacity="0.12"/>
<stop offset="1" stop-color="#808080" stop-opacity="0.1"/>
</linearGradient>
<linearGradient id="paint1_linear_4_6" x1="231050" y1="330654" x2="231050" y2="23054.3" gradientUnits="userSpaceOnUse">
<stop stop-color="#808080" stop-opacity="0.25"/>
<stop offset="0.54" stop-color="#808080" stop-opacity="0.12"/>
<stop offset="1" stop-color="#808080" stop-opacity="0.1"/>
</linearGradient>
</defs>
</svg>
